RBDS013runT35_grf
version=1
nRows=18
nColumns=19
inDegrees=no
endheader
time	ground_force_r_vx	ground_force_r_vy	ground_force_r_vz	ground_force_r_px	ground_force_r_py	ground_force_r_pz	ground_force_r_mx	ground_force_r_my	ground_force_r_mz	ground_force_l_vx	ground_force_l_vy	ground_force_l_vz	ground_force_l_px	ground_force_l_py	ground_force_l_pz	ground_force_l_mx	ground_force_l_my	ground_force_l_mz
     22.49800000	   -169.37024766	   1192.71342111	     -9.97820242	      2.45704521	      0.00000000	      1.03859513	     -0.00000000	      5.22443530	     -0.00000000	      0.00000000	      0.00000000	      0.00000000	      0.00000000	      0.00000000	      0.00000000	      0.00000000	      0.00000000	      0.00000000
     22.49900000	   -171.14506708	   1216.44811152	     -9.96778526	      2.45346073	      0.00000000	      1.03811025	     -0.00000000	      5.49338397	     -0.00000000	      0.00000000	      0.00000000	      0.00000000	      0.00000000	      0.00000000	      0.00000000	      0.00000000	      0.00000000	      0.00000000
     22.50000000	   -172.91988650	   1240.18280192	     -9.95736810	      2.44987625	      0.00000000	      1.03762536	     -0.00000000	      5.76233263	     -0.00000000	      0.00000000	      0.00000000	      0.00000000	      0.00000000	      0.00000000	      0.00000000	      0.00000000	      0.00000000	      0.00000000
     22.50100000	   -173.87884837	   1262.14125714	     -9.86408530	      2.44639013	      0.00000000	      1.03722242	     -0.00000000	      6.02830242	     -0.00000000	      0.00000000	      0.00000000	      0.00000000	      0.00000000	      0.00000000	      0.00000000	      0.00000000	      0.00000000	      0.00000000
     22.50200000	   -174.83781025	   1284.09971235	     -9.77080250	      2.44290401	      0.00000000	      1.03681948	     -0.00000000	      6.29427222	     -0.00000000	      0.00000000	      0.00000000	      0.00000000	      0.00000000	      0.00000000	      0.00000000	      0.00000000	      0.00000000	      0.00000000
     22.50300000	   -175.79677212	   1306.05816757	     -9.67751970	      2.43941788	      0.00000000	      1.03641655	     -0.00000000	      6.56024202	     -0.00000000	      0.00000000	      0.00000000	      0.00000000	      0.00000000	      0.00000000	      0.00000000	      0.00000000	      0.00000000	      0.00000000
     22.50400000	   -176.20841782	   1326.78511699	     -9.54800513	      2.43599108	      0.00000000	      1.03606692	     -0.00000000	      6.82144682	     -0.00000000	      0.00000000	      0.00000000	      0.00000000	      0.00000000	      0.00000000	      0.00000000	      0.00000000	      0.00000000	      0.00000000
     22.50500000	   -176.34640543	   1346.89631353	     -9.40037466	      2.43259395	      0.00000000	      1.03574394	     -0.00000000	      7.08026913	     -0.00000000	      0.00000000	      0.00000000	      0.00000000	      0.00000000	      0.00000000	      0.00000000	      0.00000000	      0.00000000	      0.00000000
     22.50600000	   -176.48439304	   1367.00751006	     -9.25274419	      2.42919681	      0.00000000	      1.03542097	     -0.00000000	      7.33909144	     -0.00000000	      0.00000000	      0.00000000	      0.00000000	      0.00000000	      0.00000000	      0.00000000	      0.00000000	      0.00000000	      0.00000000
     22.50700000	   -176.35109054	   1386.48653413	     -9.09655061	      2.42582562	      0.00000000	      1.03512343	     -0.00000000	      7.59410600	     -0.00000000	      0.00000000	      0.00000000	      0.00000000	      0.00000000	      0.00000000	      0.00000000	      0.00000000	      0.00000000	      0.00000000
     22.50800000	   -175.67520782	   1404.70121328	     -8.92323078	      2.42250633	      0.00000000	      1.03487675	     -0.00000000	      7.84150504	     -0.00000000	      0.00000000	      0.00000000	      0.00000000	      0.00000000	      0.00000000	      0.00000000	      0.00000000	      0.00000000	      0.00000000
     22.50900000	   -174.99932509	   1422.91589243	     -8.74991095	      2.41918704	      0.00000000	      1.03463007	     -0.00000000	      8.08890408	     -0.00000000	      0.00000000	      0.00000000	      0.00000000	      0.00000000	      0.00000000	      0.00000000	      0.00000000	      0.00000000	      0.00000000
     22.51000000	   -174.32344237	   1441.13057158	     -8.57659112	      2.41586775	      0.00000000	      1.03438338	     -0.00000000	      8.33630312	     -0.00000000	      0.00000000	      0.00000000	      0.00000000	      0.00000000	      0.00000000	      0.00000000	      0.00000000	      0.00000000	      0.00000000
     22.51100000	   -172.85213882	   1457.42070107	     -8.40435616	      2.41261382	      0.00000000	      1.03420783	     -0.00000000	      8.56813564	     -0.00000000	      0.00000000	      0.00000000	      0.00000000	      0.00000000	      0.00000000	      0.00000000	      0.00000000	      0.00000000	      0.00000000
     22.51200000	   -171.38083528	   1473.71083057	     -8.23212119	      2.40935990	      0.00000000	      1.03403228	     -0.00000000	      8.79996817	     -0.00000000	      0.00000000	      0.00000000	      0.00000000	      0.00000000	      0.00000000	      0.00000000	      0.00000000	      0.00000000	      0.00000000
     22.51300000	   -169.90953173	   1490.00096007	     -8.05988622	      2.40610597	      0.00000000	      1.03385673	     -0.00000000	      9.03180069	     -0.00000000	      0.00000000	      0.00000000	      0.00000000	      0.00000000	      0.00000000	      0.00000000	      0.00000000	      0.00000000	      0.00000000
     22.51400000	   -167.92718364	   1505.00255042	     -7.90379313	      2.40288670	      0.00000000	      1.03372431	     -0.00000000	      9.25072402	     -0.00000000	      0.00000000	      0.00000000	      0.00000000	      0.00000000	      0.00000000	      0.00000000	      0.00000000	      0.00000000	      0.00000000
     22.51500000	   -165.68931326	   1519.35987121	     -7.75577098	      2.39968474	      0.00000000	      1.03361345	     -0.00000000	      9.46319276	     -0.00000000	      0.00000000	      0.00000000	      0.00000000	      0.00000000	      0.00000000	      0.00000000	      0.00000000	      0.00000000	      0.00000000
